<?xml version="1.0" standalone="no"?>
<!DOCTYPE svg PUBLIC "-//W3C//DTD SVG 20010904//EN"
 "http://www.w3.org/TR/2001/REC-SVG-20010904/DTD/svg10.dtd">
<svg version="1.0" xmlns="http://www.w3.org/2000/svg"
 width="16.000000pt" height="16.000000pt" viewBox="0 0 16.000000 16.000000"
 preserveAspectRatio="xMidYMid meet">
<metadata>
Created by potrace 1.11, written by Peter Selinger 2001-2013
</metadata>
<g transform="translate(0.000000,16.000000) scale(0.000800,-0.000800)"
fill="#000000" stroke="none">
<path d="M1932 15608 c-522 -320 -848 -929 -819 -1532 12 -253 86 -479 225
-691 67 -103 248 -280 362 -355 205 -134 431 -226 691 -280 242 -50 234 -50
2345 -50 1378 0 1988 -3 2029 -11 192 -35 251 -139 275 -483 5 -77 26 -1475
45 -3106 39 -3224 45 -3564 70 -3680 58 -272 197 -321 376 -134 69 73 130 164
174 257 71 149 65 -178 65 3664 l0 3473 33 0 c150 0 356 146 461 325 211 363
246 885 82 1241 -134 288 -360 483 -661 568 -226 64 -25 59 -2635 67 -1306 4
-2393 10 -2415 13 -22 4 -76 11 -120 17 -200 25 -361 89 -462 183 -83 77 -107
129 -111 243 -4 107 12 176 65 271 19 34 33 62 31 62 -2 0 -50 -28 -106 -62z"/>
<path d="M9688 14895 c-71 -48 -198 -270 -240 -420 l-23 -80 -3 -3930 c-2
-2708 0 -3981 8 -4095 21 -321 85 -535 220 -735 159 -234 369 -374 665 -443
64 -14 365 -16 3250 -22 2983 -5 3186 -7 3283 -23 283 -49 458 -142 528 -280
50 -98 41 -236 -23 -366 -20 -42 -39 -80 -41 -85 -3 -5 22 5 54 23 224 125
426 329 529 532 45 88 98 243 121 354 29 135 26 481 -4 618 -62 279 -179 516
-364 734 -216 255 -620 591 -787 654 -106 40 -163 43 -651 39 -256 -2 -1579
-4 -2940 -4 -2358 -1 -2479 0 -2560 17 -390 84 -666 326 -769 675 -11 37 -28
105 -38 152 -16 79 -17 304 -23 3275 -5 3022 -7 3194 -24 3265 -38 160 -86
201 -168 145z"/>
</g>
</svg>
